<svg xmlns="http://www.w3.org/2000/svg" id="Capa_2" viewBox="0 0 323.6 195.12"><defs><style>.cls-1{fill:#fff;}</style></defs><g id="Capa_1-2"><path class="cls-1" d="m10,195.12c-5.52,0-10-4.47-10-10V10C0,4.48,4.48,0,10,0h40.05c2.27,0,4.35.76,6.03,2.03,1.67-1.27,3.75-2.03,6.02-2.03h9.64c2.9,0,5.49,1.24,7.32,3.2,3.33-2.07,7.46-3.2,12.26-3.2h6.02c4.79,0,8.92,1.13,12.25,3.2,1.83-1.96,4.43-3.2,7.32-3.2h9.64c2.99,0,5.66,1.32,7.5,3.4,3.38-2.21,7.63-3.4,12.58-3.4h9.24c4.95,0,9.19,1.19,12.58,3.39,1.83-2.07,4.5-3.39,7.49-3.39h9.64c1.87,0,3.65.52,5.17,1.44,1.51-.91,3.28-1.44,5.17-1.44h9.64c2.99,0,5.66,1.32,7.49,3.39,3.39-2.2,7.64-3.39,12.59-3.39h7.23c13.29,0,21.54,8.56,21.54,22.35v7.48c0,3.09,2.51,5.6,5.6,5.6h0c14.48,0,23.47,9.11,23.47,23.77v19.19c0,5.06,4.11,9.17,9.17,9.16h.3s9.18,0,9.18,0c13.24,0,21.47,8.54,21.47,22.28v63.12c0,13.67-8.26,22.17-21.57,22.17h-8.98"></path><polygon points="116.91 185.1 126.49 185.1 125.5 122.3 132.68 156.23 140.07 156.23 147.25 122.3 146.25 185.11 155.83 185.11 155.83 97.55 145.26 97.55 136.37 139.66 127.49 97.55 116.91 97.55 116.91 185.1"></polygon><polygon points="10 185.12 19.64 185.12 19.64 54.17 33.88 54.17 33.88 45.43 19.64 45.43 19.64 18.73 50.05 18.73 50.05 10 10 10 10 45.43 10 45.43 10 54.17 10 54.17 10 185.12"></polygon><path d="m50.05,58.5V25.92h-9.63v73.81c0,9.17,3.85,13.75,11.54,13.75h8.13c7.77,0,11.65-4.55,11.65-13.65V10h-9.64v90.03c0,3.15-1.3,4.72-3.91,4.72h-3.92c-2.81,0-4.22-1.57-4.22-4.72v-41.53Z"></path><path d="m97.34,10h-6.02c-7.7,0-11.55,4.11-11.55,12.35v14.75c0,1.88.2,3.4.6,4.57.03.09.06.18.1.26.4,1.06,1.03,1.93,1.86,2.6.9.74,2.36,1.65,4.37,2.71l9.13,5.12c1.21.74,2.08,1.34,2.61,1.81.54.47.81,1.37.81,2.71v43.65c0,2.81-1.28,4.22-3.82,4.22h-1.71c-2.87,0-4.31-1.41-4.31-4.22v-26.85h-9.64v26.55c0,8.83,3.85,13.25,11.55,13.25h5.92c7.76,0,11.64-4.05,11.64-12.15v-46.76c0-2.54-.23-4.26-.7-5.17-.47-.9-1.12-1.67-1.96-2.31-.83-.63-2.25-1.52-4.26-2.66l-4.64-2.5-4.5-2.42c-1.2-.73-2.07-1.33-2.61-1.8-.54-.47-.8-1.37-.8-2.71v-11.95c0-2.88,1.37-4.32,4.11-4.32h1.51c2.81,0,4.22,1.44,4.22,4.32v6.32h9.63v-7.02c0-8.24-3.84-12.35-11.54-12.35Z"></path><rect x="116.91" y="10" width="9.64" height="79.53"></rect><path d="m146.73,89.53h9.04c7.76,0,11.64-4.08,11.64-12.25V22.35c0-8.24-3.85-12.35-11.54-12.35h-9.24c-7.7,0-11.54,4.11-11.54,12.35v54.93c0,8.17,3.88,12.25,11.64,12.25Zm-2.01-31.86V22.95c0-2.81,1.41-4.22,4.22-4.22h4.52c2.87,0,4.31,1.41,4.31,4.22v53.63c0,2.81-1.27,4.21-3.81,4.21h-4.92c-2.88,0-4.32-1.4-4.32-4.21v-18.91Z"></path><polygon points="185.58 34.9 187.79 41.93 192.75 57.67 195.92 67.72 195.92 89.53 205.56 89.53 205.56 10 195.92 10 195.92 44.84 195.06 41.93 185.58 10 175.94 10 175.94 89.53 185.58 89.53 185.58 34.9"></polygon><path d="m234.77,89.53h9.64V22.35c0-8.24-3.85-12.35-11.54-12.35h-7.23c-7.7,0-11.55,4.11-11.55,12.35v19.58h9.64v-18.98c0-2.81,1.41-4.22,4.22-4.22h2.61c2.81,0,4.21,1.41,4.21,4.22v22.48h-20.68v8.73h20.68v35.36Z"></path><rect x="214.09" y="57.67" width="9.64" height="31.86"></rect><polygon points="105.52 160.27 34.04 160.27 34.04 121.44 25.92 121.44 25.92 160.27 25.92 169.2 25.92 185.12 34.04 185.12 34.04 169.24 105.52 169.24 105.52 160.27"></polygon><path d="m105.52,132.27c0-7.22-4.23-10.83-12.7-10.83h-50.98v8.96h51.17c2.93,0,4.39,1.21,4.39,3.64v6.35c0,2.61-1.46,3.92-4.39,3.92h-51.17v8.96h50.89c8.53,0,12.79-3.58,12.79-10.74v-10.27Z"></path><path d="m164.81,97.55v73.88c0,9.11,3.83,13.67,11.48,13.67h8.08c7.72,0,11.58-4.52,11.58-13.57v-73.98h-9.58v74.18c0,3.13-1.3,4.69-3.89,4.69h-3.89c-2.79,0-4.19-1.56-4.19-4.69v-74.18h-9.58Z"></path><polygon points="234.37 185.11 234.37 97.55 224.79 97.55 224.79 132.18 214.51 97.55 204.93 97.55 204.93 185.11 214.51 185.11 214.51 122.3 224.79 170.84 224.79 185.11 234.37 185.11"></polygon><path d="m302.13,97.55h-9.18c-7.65,0-11.48,4.09-11.48,12.27v63.12c0,8.12,3.86,12.17,11.58,12.17h8.98c7.72,0,11.58-4.06,11.58-12.17v-63.12c0-8.18-3.83-12.27-11.48-12.27Zm1.9,74.7c0,2.79-1.26,4.19-3.79,4.19h-4.89c-2.86,0-4.29-1.4-4.29-4.19v-61.82c0-2.79,1.4-4.19,4.19-4.19h4.49c2.86,0,4.29,1.4,4.29,4.19v61.82Z"></path><path d="m260.01,45.43h-11.2v8.68h10.8c2.86,0,4.29,1.73,4.29,5.19v113.91c0,2.13-1.26,3.2-3.79,3.2h-7.18v-78.86h-9.58v87.54h18.66c7.65,0,11.47-3.46,11.47-10.38V59.2c0-9.18-4.49-13.77-13.47-13.77Z"></path></g></svg>